<svg id="Capa_1" data-name="Capa 1" xmlns="http://www.w3.org/2000/svg" viewBox="0 0 106.44 84.19"><defs><style>.cls-1{fill:#fff;}.cls-2{fill:#444242;}</style></defs><title>luna</title><path class="cls-1" d="M20.55,59.3c-7.16,0-14.33.12-21.5,0s-13.86-1.92-19.37-6.83c-6.28-5.6-6.89-14.2-1.36-20.53,1.47-1.69,2.53-3.06,2.38-5.6C-20.09,13.24-11.77,2.83,1.46.57,12.33-1.29,22,1.21,29.38,10a5.58,5.58,0,0,0,5.51,2.25c10.72-1,15.53,2,19.73,12.45.75,1.86,2.27,2.29,3.66,3.1,11.35,6.58,11.77,19.45.84,26.71a29.57,29.57,0,0,1-16.57,4.76C35.22,59.33,27.89,59.3,20.55,59.3Z" transform="translate(25.46 24.85)"/><path class="cls-2" d="M38.49,8.78C30.7,9,27.3,5.23,28.27-.95,30-11.82,36-19.44,45.9-24c1.21-.56,2.52-1.28,3.74-.35,1.53,1.15.18,2.42-.2,3.57-6.87,20.91,5.81,39.42,28.07,41,1.26.08,2.92-.42,3.41,1.26.35,1.23-.76,2.14-1.6,2.91-1.47,1.34-3,2.67-4.56,3.86-3.84,2.83-7.11,4.3-11.41-.31-2.88-3.07-5.84-5.68-7.93-9.58C51.61,11.16,44.77,8.72,38.49,8.78Z" transform="translate(25.46 24.85)"/></svg>