<svg id="Capa_1" data-name="Capa 1" xmlns="http://www.w3.org/2000/svg" viewBox="0 0 95.79 84"><defs><style>.cls-1{fill:#fff;}.cls-2{fill:#feee00;}</style></defs><title>sol</title><path class="cls-1" d="M-54,70.9c-7.16,0-14.32.07-21.47,0a30.48,30.48,0,0,1-17.42-5.25c-8.23-5.74-9.34-15.34-2.62-22.85,1-1.14,1.87-2,1.85-3.78-.18-19.76,16.3-31.92,35.29-26.14a25.68,25.68,0,0,1,13.46,9c1.38,1.82,2.79,2.28,5.07,2.06,11-1.08,16,2,19.92,12.13.71,1.81,2,2.4,3.49,3.23,12,6.83,12,20.48.13,27.51A30.63,30.63,0,0,1-32.06,70.9c-7.32,0-14.64,0-22,0Z" transform="translate(99.91 13.08)"/><path class="cls-2" d="M-16.36,19.44c-.06.47-.13,1.47-.33,2.44-.42,2.12-.5,4.88-2.35,5.81-2,1-3-1.9-4.57-2.92-4.13-2.71-8.53-4.68-13.51-4.4-3.23.18-5.8-.31-7.7-3.15a10.73,10.73,0,0,0-2.58-2.34c-5.39-4.11-5.53-5.47-.3-10C-41.78-.34-35-1.4-27.72,1.6A18.85,18.85,0,0,1-16.36,19.44Z" transform="translate(99.91 13.08)"/><path class="cls-2" d="M-33.24-9.48C-33.34-7.95-33-6-35-5.86c-2.47.13-2-2.1-2.07-3.66s-.26-3.45,1.72-3.55C-32.88-13.2-33.44-10.93-33.24-9.48Z" transform="translate(99.91 13.08)"/><path class="cls-2" d="M-7.38,20.69C-9,20.44-11,21.06-11,18.87s1.77-2,3.24-1.94S-4,16.52-4.13,19C-4.2,21.12-6.31,20.34-7.38,20.69Z" transform="translate(99.91 13.08)"/><path class="cls-2" d="M-51.08,1.29c-.15,1.28-.7,2.29-1.84,1.86a6,6,0,0,1-3.89-4A1.39,1.39,0,0,1-55-2.51,6.23,6.23,0,0,1-51.08,1.29Z" transform="translate(99.91 13.08)"/><path class="cls-2" d="M-17.93,2.67c-1.12-.1-2.07-.53-1.8-1.45a5.36,5.36,0,0,1,4.31-4.17,1.33,1.33,0,0,1,1.28,1.73A5.64,5.64,0,0,1-17.93,2.67Z" transform="translate(99.91 13.08)"/></svg>